<?xml version="1.0" encoding="UTF-8"?>
<svg id="Layer_2" data-name="Layer 2" xmlns="http://www.w3.org/2000/svg" viewBox="0 0 273 273">
  <defs>
    <style>
      .cls-1, .cls-2, .cls-3, .cls-4, .cls-5 {
        fill-rule: evenodd;
      }

      .cls-1, .cls-4 {
        fill: #231f20;
      }

      .cls-2 {
        fill: #fff;
      }

      .cls-3 {
        fill: #0072bc;
      }

      .cls-4 {
        stroke: #231f20;
        stroke-linecap: round;
        stroke-linejoin: round;
        stroke-width: .83px;
      }

      .cls-5 {
        fill: #ed1846;
      }
    </style>
  </defs>
  <g id="Layer_1-2" data-name="Layer 1">
    <g>
      <polygon class="cls-2" points=".85 1 272.14 1 272.14 272.29 .85 272.29 .85 1 .85 1"/>
      <polygon class="cls-5" points="48.59 48.89 100.08 48.89 136.49 12.48 172.9 48.89 224.4 48.89 224.4 100.39 260.81 136.8 224.4 173.21 224.4 224.7 172.9 224.7 136.49 261.12 100.08 224.7 48.59 224.7 48.59 173.21 12.17 136.8 48.59 100.39 48.59 48.89 48.59 48.89"/>
      <path class="cls-3" d="M4.56,5.29h131.7l-38.27,38.59h-54.44v53.95l-6.93,7.47-32.06,31.39V5.29h0ZM136.27,5.29h131.5v131.45l-26.03-26.14-12.3-11.4v-55.33h-54.44L136.27,5.29h0ZM267.77,136.85v131.76h-131.11l38.33-38.89h54.44v-54.95l18.42-17.91,19.91-20.02h0ZM136.1,268.6H4.56l-.11-131.94,32.26,31.87,6.84,8.23v52.95h54.44l38.11,38.89h0Z"/>
      <polygon class="cls-4" points="193.39 136.68 204.18 146.79 204.18 190.97 193.39 180.85 193.39 136.68 193.39 136.68"/>
      <polygon class="cls-4" points="193.39 180.85 204.18 190.97 204.18 190.97 193.39 180.86 193.39 180.85 193.39 180.85"/>
      <polygon class="cls-4" points="193.39 180.86 204.18 190.97 204.18 190.97 193.39 180.86 193.39 180.86 193.39 180.86"/>
      <polygon class="cls-4" points="193.39 180.86 204.18 190.97 204.17 191.42 204.16 191.85 204.13 192.28 204.09 192.7 204.04 193.11 203.98 193.51 203.91 193.9 203.83 194.28 203.74 194.66 203.64 195.02 203.53 195.38 203.41 195.73 203.28 196.07 203.15 196.4 203 196.72 202.85 197.03 192.06 186.92 192.21 186.6 192.36 186.28 192.49 185.95 192.62 185.61 192.74 185.27 192.85 184.91 192.95 184.54 193.04 184.17 193.12 183.79 193.19 183.4 193.25 183 193.3 182.59 193.34 182.17 193.37 181.74 193.38 181.3 193.39 180.86 193.39 180.86"/>
      <polygon class="cls-4" points="192.06 186.92 202.85 197.03 202.71 197.28 202.58 197.53 202.43 197.77 202.28 198 202.13 198.24 201.97 198.46 201.8 198.68 201.63 198.9 190.84 188.78 191.01 188.57 191.18 188.35 191.34 188.12 191.49 187.89 191.64 187.66 191.79 187.42 191.92 187.17 192.06 186.92 192.06 186.92"/>
      <polygon class="cls-4" points="190.84 188.78 201.63 198.9 201.18 199.41 200.7 199.9 200.19 200.34 199.66 200.75 199.11 201.13 198.54 201.47 197.95 201.77 197.34 202.04 196.72 202.28 196.08 202.49 195.44 202.66 194.78 202.8 194.12 202.91 193.45 202.98 192.78 203.03 192.11 203.04 181.32 192.93 181.99 192.92 182.66 192.87 183.33 192.79 183.99 192.69 184.65 192.55 185.29 192.37 185.93 192.17 186.55 191.93 187.16 191.66 187.75 191.35 188.32 191.01 188.87 190.64 189.4 190.23 189.91 189.78 190.39 189.3 190.84 188.78 190.84 188.78"/>
      <polygon class="cls-4" points="170.19 192.93 180.98 203.04 180.44 203.03 179.9 202.99 179.36 202.93 178.82 202.84 178.28 202.73 177.74 202.59 177.21 202.43 176.68 202.25 176.16 202.04 175.65 201.81 175.15 201.56 174.65 201.28 174.17 200.98 173.7 200.65 173.25 200.3 162.46 190.19 162.91 190.54 163.38 190.86 163.86 191.17 164.36 191.44 164.86 191.7 165.37 191.93 165.89 192.14 166.42 192.32 166.95 192.48 167.49 192.62 168.03 192.73 168.57 192.82 169.11 192.88 169.65 192.91 170.19 192.93 170.19 192.93"/>
      <polygon class="cls-4" points="170.19 192.93 180.98 203.04 180.98 203.04 170.19 192.93 170.19 192.93 170.19 192.93"/>
      <polygon class="cls-4" points="181.32 192.93 192.11 203.04 180.98 203.04 170.19 192.93 181.32 192.93 181.32 192.93"/>
      <polygon class="cls-4" points="149.04 136.68 159.84 146.79 159.84 202.04 149.04 191.93 149.04 136.68 149.04 136.68"/>
      <polygon class="cls-4" points="170.75 157.96 181.54 168.07 181.69 168.19 181.82 168.34 181.91 168.51 181.97 168.7 181.99 168.9 171.2 158.79 171.18 158.59 171.12 158.4 171.03 158.23 170.9 158.08 170.75 157.96 170.75 157.96"/>
      <polygon class="cls-4" points="171.2 158.79 181.99 168.9 181.99 168.93 171.2 158.81 171.2 158.79 171.2 158.79"/>
      <polygon class="cls-4" points="171.2 158.81 181.99 168.93 181.99 185.45 171.2 175.33 171.2 158.81 171.2 158.81"/>
      <polygon class="cls-4" points="171.2 175.33 181.99 185.45 181.98 185.45 171.19 175.33 171.2 175.33 171.2 175.33"/>
      <polygon class="cls-4" points="171.19 175.33 181.98 185.45 182.04 186.25 182.19 186.98 182.44 187.64 182.77 188.22 183.16 188.74 183.62 189.17 172.83 179.06 172.37 178.62 171.98 178.11 171.65 177.53 171.4 176.87 171.25 176.14 171.19 175.33 171.19 175.33"/>
      <polygon class="cls-4" points="180.32 175.33 191.11 185.45 191.11 185.45 180.32 175.33 180.32 175.33 180.32 175.33"/>
      <polygon class="cls-4" points="178.48 138.34 189.27 148.45 188.19 147.97 186.76 147.79 175.97 137.68 177.4 137.86 178.48 138.34 178.48 138.34"/>
      <polygon class="cls-4" points="170.19 137.67 180.98 147.78 180.42 147.77 179.86 147.72 179.3 147.63 178.74 147.52 178.19 147.37 177.64 147.19 177.1 146.99 176.57 146.76 176.04 146.5 175.53 146.22 175.02 145.91 174.53 145.58 174.05 145.22 173.58 144.85 162.79 134.74 163.26 135.11 163.74 135.46 164.23 135.8 164.74 136.1 165.25 136.38 165.78 136.64 166.31 136.88 166.85 137.08 167.4 137.26 167.95 137.4 168.51 137.52 169.07 137.6 169.63 137.66 170.19 137.67 170.19 137.67"/>
      <polygon class="cls-4" points="170.19 137.68 180.98 147.79 180.98 147.79 170.19 137.68 170.19 137.68 170.19 137.68"/>
      <polygon class="cls-4" points="175.97 137.68 186.76 147.79 180.98 147.79 170.19 137.68 175.97 137.68 175.97 137.68"/>
      <polygon class="cls-4" points="149.04 81.47 159.83 91.58 159.83 135.75 149.04 125.64 149.04 81.47 149.04 81.47"/>
      <polygon class="cls-4" points="158.12 81.47 168.91 91.58 168.91 91.58 158.12 81.47 158.12 81.47 158.12 81.47"/>
      <polygon class="cls-4" points="181.32 69.43 192.11 79.55 192.11 79.55 181.32 69.44 181.32 69.43 181.32 69.43"/>
      <polygon class="cls-4" points="188.84 72.33 199.63 82.44 200.07 82.83 200.5 83.24 189.71 73.12 189.28 72.71 188.84 72.33 188.84 72.33"/>
      <polygon class="cls-4" points="189.71 73.12 200.5 83.24 200.91 83.66 201.3 84.1 201.67 84.57 202.01 85.04 202.34 85.53 202.64 86.03 202.92 86.55 203.17 87.08 203.4 87.61 203.6 88.16 203.77 88.72 203.92 89.28 204.03 89.84 204.11 90.42 204.16 90.99 204.18 91.57 193.39 81.46 193.37 80.88 193.32 80.3 193.24 79.73 193.13 79.16 192.98 78.6 192.81 78.05 192.61 77.5 192.38 76.96 192.13 76.44 191.85 75.92 191.55 75.42 191.22 74.93 190.88 74.45 190.51 73.99 190.12 73.55 189.71 73.12 189.71 73.12"/>
      <polygon class="cls-4" points="193.39 81.46 204.18 91.57 204.18 91.58 193.39 81.47 193.39 81.46 193.39 81.46"/>
      <polygon class="cls-4" points="193.39 81.47 204.18 91.58 204.18 113.69 193.39 103.58 193.39 81.47 193.39 81.47"/>
      <polygon class="cls-4" points="193.39 103.58 204.18 113.69 204.16 113.89 204.11 114.08 204.01 114.25 203.89 114.4 203.74 114.52 203.57 114.61 203.39 114.67 203.18 114.69 192.39 104.58 192.6 104.56 192.78 104.5 192.95 104.41 193.1 104.28 193.22 104.14 193.32 103.97 193.37 103.78 193.39 103.58 193.39 103.58"/>
      <polygon class="cls-4" points="192.39 104.58 203.18 114.69 203.16 114.69 192.37 104.58 192.39 104.58 192.39 104.58"/>
      <polygon class="cls-4" points="171.2 86.61 181.99 96.72 181.99 129.91 171.2 119.8 171.2 86.61 171.2 86.61"/>
      <polygon class="cls-4" points="181.32 104.58 192.11 114.69 191.91 114.67 191.72 114.61 191.55 114.52 191.4 114.4 180.61 104.28 180.76 104.41 180.93 104.5 181.12 104.56 181.32 104.58 181.32 104.58"/>
      <polygon class="cls-4" points="178.72 83.33 189.51 93.44 189.02 93.13 188.48 92.89 177.69 82.78 178.23 83.02 178.72 83.33 178.72 83.33"/>
      <polygon class="cls-4" points="177.69 82.78 188.48 92.89 188.25 92.81 188.02 92.74 187.78 92.68 187.54 92.63 187.29 92.59 187.05 92.57 186.8 92.55 186.56 92.55 175.77 82.43 176.01 82.44 176.26 82.46 176.5 82.48 176.75 82.52 176.99 82.57 177.23 82.63 177.46 82.7 177.69 82.78 177.69 82.78"/>
      <polygon class="cls-4" points="175.77 82.43 186.56 92.55 186.12 92.56 185.68 92.61 185.26 92.7 184.84 92.81 184.44 92.97 184.06 93.15 183.7 93.37 183.36 93.62 172.57 83.5 172.91 83.25 173.27 83.04 173.65 82.85 174.05 82.7 174.47 82.59 174.89 82.5 175.33 82.45 175.77 82.43 175.77 82.43"/>
      <polygon class="cls-4" points="172.57 83.5 183.36 93.62 183.06 93.89 182.8 94.19 182.56 94.53 182.36 94.9 182.2 95.31 182.08 95.75 182.01 96.22 181.99 96.72 171.2 86.61 171.22 86.1 171.29 85.63 171.41 85.19 171.57 84.79 171.77 84.42 172.01 84.08 172.27 83.78 172.57 83.5 172.57 83.5"/>
      <polygon class="cls-4" points="192.37 104.58 203.16 114.69 192.11 114.69 181.32 104.58 192.37 104.58 192.37 104.58"/>
      <polygon class="cls-4" points="171.2 119.8 181.99 129.91 181.99 129.93 181.99 129.94 181.99 129.95 181.98 129.97 181.98 129.98 181.98 129.99 181.98 130.01 181.98 130.02 171.19 119.91 171.19 119.89 171.19 119.88 171.19 119.87 171.19 119.85 171.2 119.84 171.2 119.83 171.2 119.81 171.2 119.8 171.2 119.8"/>
      <polygon class="cls-4" points="171.19 119.91 181.98 130.02 181.98 130.04 181.98 130.07 181.98 130.11 181.98 130.14 181.98 130.17 181.98 130.21 181.98 130.25 181.98 130.3 171.19 120.18 171.19 120.14 171.19 120.1 171.19 120.06 171.19 120.02 171.19 119.99 171.19 119.96 171.19 119.93 171.19 119.91 171.19 119.91"/>
      <polygon class="cls-4" points="171.19 120.18 181.98 130.3 181.97 130.3 171.18 120.18 171.19 120.18 171.19 120.18"/>
      <polygon class="cls-4" points="171.18 120.18 181.97 130.3 181.99 130.77 182.03 131.23 182.11 131.67 182.22 132.08 182.36 132.46 182.53 132.82 182.74 133.15 182.98 133.45 172.19 123.34 171.95 123.04 171.74 122.71 171.57 122.35 171.43 121.96 171.32 121.55 171.24 121.12 171.2 120.66 171.18 120.18 171.18 120.18"/>
      <polygon class="cls-4" points="172.19 123.34 182.98 133.45 183.26 133.72 172.47 123.61 172.19 123.34 172.19 123.34"/>
      <polygon class="cls-4" points="188.89 126.95 199.68 137.06 200.24 137.53 200.75 138.02 201.22 138.54 201.65 139.08 202.03 139.63 202.37 140.18 202.67 140.74 191.88 130.63 191.58 130.07 191.24 129.51 190.85 128.96 190.43 128.43 189.96 127.91 189.45 127.41 188.89 126.95 188.89 126.95"/>
      <polygon class="cls-4" points="191.88 130.63 202.67 140.74 202.94 141.3 203.17 141.85 203.37 142.39 203.54 142.92 203.69 143.43 203.81 143.93 203.91 144.39 203.99 144.83 204.05 145.24 204.1 145.61 204.14 145.93 204.16 146.21 204.17 146.44 204.18 146.62 204.18 146.74 204.18 146.79 193.39 136.68 193.39 136.62 193.39 136.51 193.38 136.33 193.37 136.1 193.35 135.82 193.31 135.5 193.26 135.13 193.2 134.72 193.12 134.28 193.02 133.81 192.9 133.32 192.75 132.81 192.58 132.28 192.38 131.73 192.15 131.18 191.88 130.63 191.88 130.63"/>
      <polygon class="cls-4" points="136.97 69.43 147.76 79.55 147.76 79.55 136.97 69.44 136.97 69.43 136.97 69.43"/>
      <polygon class="cls-4" points="143.93 72.13 154.72 82.24 155.19 82.63 155.64 83.03 156.07 83.45 145.28 73.34 144.85 72.92 144.4 72.51 143.93 72.13 143.93 72.13"/>
      <polygon class="cls-4" points="145.28 73.34 156.07 83.45 156.48 83.89 156.88 84.34 157.25 84.81 157.61 85.29 157.94 85.78 158.25 86.29 158.53 86.8 158.79 87.32 159.03 87.84 159.23 88.37 159.41 88.91 159.56 89.44 159.68 89.98 159.76 90.51 159.81 91.04 159.83 91.57 149.04 81.46 149.03 80.93 148.97 80.4 148.89 79.86 148.77 79.33 148.62 78.79 148.44 78.26 148.24 77.73 148 77.21 147.74 76.69 147.46 76.17 147.15 75.67 146.82 75.18 146.46 74.7 146.09 74.23 145.69 73.78 145.28 73.34 145.28 73.34"/>
      <polygon class="cls-4" points="149.04 81.46 159.84 91.57 159.84 91.58 149.04 81.47 149.04 81.46 149.04 81.46"/>
      <polygon class="cls-4" points="149.04 81.47 159.84 91.58 159.83 91.58 149.04 81.47 149.04 81.47 149.04 81.47"/>
      <polygon class="cls-4" points="158.12 125.65 168.91 135.76 168.91 135.76 158.12 125.65 158.12 125.65 158.12 125.65"/>
      <polygon class="cls-4" points="149.04 125.64 159.84 135.75 159.84 135.76 149.04 125.65 149.04 125.64 149.04 125.64"/>
      <polygon class="cls-4" points="149.04 125.65 159.84 135.76 159.83 135.76 149.04 125.65 149.04 125.65 149.04 125.65"/>
      <polygon class="cls-4" points="149.04 125.65 159.83 135.76 159.82 136.11 159.8 136.46 159.76 136.79 159.7 137.12 159.63 137.45 159.54 137.76 159.44 138.07 159.33 138.37 159.2 138.66 159.06 138.94 158.9 139.22 158.74 139.48 158.56 139.73 158.37 139.97 158.17 140.21 157.96 140.43 147.17 130.32 147.38 130.09 147.58 129.86 147.77 129.62 147.95 129.36 148.11 129.1 148.27 128.83 148.41 128.55 148.54 128.26 148.65 127.96 148.75 127.65 148.84 127.34 148.91 127.01 148.97 126.68 149.01 126.34 149.03 126 149.04 125.65 149.04 125.65"/>
      <polygon class="cls-4" points="147.17 130.32 157.96 140.43 157.83 140.55 157.71 140.66 157.58 140.78 157.45 140.89 157.31 140.99 157.18 141.09 157.03 141.19 156.89 141.29 146.1 131.17 146.25 131.08 146.39 130.98 146.52 130.88 146.66 130.77 146.79 130.66 146.92 130.55 147.04 130.43 147.17 130.32 147.17 130.32"/>
      <polygon class="cls-4" points="146.65 131.57 157.44 141.68 157.57 141.79 157.7 141.9 157.82 142.01 157.94 142.13 147.15 132.02 147.03 131.9 146.91 131.79 146.78 131.68 146.65 131.57 146.65 131.57"/>
      <polygon class="cls-4" points="147.15 132.02 157.94 142.13 158.15 142.36 158.36 142.59 158.55 142.83 158.72 143.09 158.89 143.35 159.05 143.62 159.19 143.9 159.32 144.19 159.44 144.49 159.54 144.8 159.63 145.11 159.7 145.43 159.76 145.76 159.8 146.09 159.82 146.43 159.83 146.78 149.04 136.67 149.03 136.32 149.01 135.98 148.97 135.65 148.91 135.32 148.84 135 148.75 134.68 148.65 134.38 148.53 134.08 148.4 133.79 148.26 133.51 148.1 133.24 147.93 132.97 147.76 132.72 147.56 132.48 147.36 132.24 147.15 132.02 147.15 132.02"/>
      <polygon class="cls-4" points="149.04 136.67 159.84 146.78 159.84 146.79 149.04 136.68 149.04 136.67 149.04 136.67"/>
      <polygon class="cls-4" points="158.12 180.86 168.91 190.97 168.91 190.97 158.12 180.86 158.12 180.86 158.12 180.86"/>
      <polygon class="cls-4" points="149.04 191.93 159.84 202.04 159.82 202.24 159.76 202.43 159.66 202.6 159.54 202.75 159.39 202.87 159.22 202.96 159.04 203.02 158.83 203.04 148.04 192.93 148.25 192.91 148.43 192.85 148.6 192.76 148.75 192.64 148.87 192.49 148.97 192.32 149.03 192.13 149.04 191.93 149.04 191.93"/>
      <polygon class="cls-4" points="148.04 192.93 158.83 203.04 158.81 203.04 148.02 192.93 148.04 192.93 148.04 192.93"/>
      <polygon class="cls-4" points="126.8 137.68 137.59 147.79 137.59 202.04 126.8 191.93 126.8 137.68 126.8 137.68"/>
      <polygon class="cls-4" points="136.97 192.93 147.76 203.04 147.56 203.02 147.37 202.96 147.2 202.87 136.41 192.76 136.58 192.85 136.77 192.91 136.97 192.93 136.97 192.93"/>
      <polygon class="cls-4" points="134.27 138.6 145.06 148.71 144.7 148.47 144.32 148.27 143.92 148.1 143.5 147.96 143.07 147.87 142.63 147.81 142.18 147.78 131.39 137.67 131.84 137.69 132.28 137.75 132.71 137.85 133.13 137.99 133.53 138.16 133.91 138.36 134.27 138.6 134.27 138.6"/>
      <polygon class="cls-4" points="135.97 141.91 146.76 152.02 146.76 152.02 135.97 141.91 135.97 141.91 135.97 141.91"/>
      <polygon class="cls-4" points="131.39 137.67 142.18 147.78 142.18 147.79 131.39 137.68 131.39 137.67 131.39 137.67"/>
      <polygon class="cls-4" points="131.39 137.68 142.18 147.79 142.17 147.79 131.38 137.68 131.39 137.68 131.39 137.68"/>
      <polygon class="cls-4" points="131.38 137.68 142.17 147.79 137.59 147.79 126.8 137.68 131.38 137.68 131.38 137.68"/>
      <polygon class="cls-4" points="148.02 192.93 158.81 203.04 147.76 203.04 136.97 192.93 148.02 192.93 148.02 192.93"/>
      <polygon class="cls-4" points="126.8 191.93 137.59 202.04 137.57 202.24 137.51 202.43 137.42 202.6 137.3 202.75 137.15 202.87 136.98 202.96 136.79 203.02 136.59 203.04 125.8 192.93 126 192.91 126.19 192.85 126.36 192.76 126.51 192.64 126.63 192.49 126.72 192.32 126.78 192.13 126.8 191.93 126.8 191.93"/>
      <polygon class="cls-4" points="125.8 192.93 136.59 203.04 136.56 203.04 125.77 192.93 125.8 192.93 125.8 192.93"/>
      <polygon class="cls-4" points="104.69 180.86 115.48 190.97 115.47 191.61 115.44 192.23 115.38 192.85 115.3 193.45 115.19 194.05 115.07 194.63 114.92 195.19 114.74 195.74 114.54 196.28 114.32 196.8 114.08 197.31 113.81 197.79 113.52 198.27 113.2 198.72 112.86 199.15 112.49 199.57 101.7 189.46 102.07 189.04 102.41 188.61 102.73 188.15 103.02 187.68 103.29 187.19 103.53 186.69 103.75 186.17 103.95 185.63 104.13 185.08 104.28 184.51 104.4 183.93 104.51 183.34 104.59 182.74 104.65 182.12 104.68 181.49 104.69 180.86 104.69 180.86"/>
      <polygon class="cls-4" points="114.77 192.93 125.56 203.04 125.36 203.02 125.17 202.96 125 202.87 114.21 192.76 114.38 192.85 114.57 192.91 114.77 192.93 114.77 192.93"/>
      <polygon class="cls-4" points="134.54 83.61 145.33 93.72 144.98 93.46 144.62 93.23 144.24 93.04 143.84 92.87 143.43 92.75 143.02 92.65 142.6 92.6 142.18 92.58 131.39 82.46 131.81 82.48 132.22 82.54 132.64 82.63 133.05 82.76 133.45 82.93 133.83 83.12 134.19 83.35 134.54 83.61 134.54 83.61"/>
      <polygon class="cls-4" points="131.39 82.46 142.18 92.58 142.18 92.58 131.39 82.47 131.39 82.46 131.39 82.46"/>
      <polygon class="cls-4" points="131.39 82.47 142.18 92.58 142.17 92.58 131.38 82.47 131.39 82.47 131.39 82.47"/>
      <polygon class="cls-4" points="131.38 82.47 142.17 92.58 137.59 92.58 126.8 82.47 131.38 82.47 131.38 82.47"/>
      <polygon class="cls-4" points="126.8 82.47 137.59 92.58 137.59 134.75 126.8 124.64 126.8 82.47 126.8 82.47"/>
      <polygon class="cls-4" points="82.2 69.6 92.99 79.72 93.14 79.84 93.26 79.99 93.35 80.16 93.41 80.35 93.43 80.55 82.64 70.43 82.62 70.23 82.56 70.05 82.47 69.87 82.34 69.73 82.2 69.6 82.2 69.6"/>
      <polygon class="cls-4" points="82.64 70.43 93.43 80.55 93.43 80.57 82.64 70.46 82.64 70.43 82.64 70.43"/>
      <polygon class="cls-4" points="82.64 70.46 93.43 80.57 93.43 185.45 82.64 175.33 82.64 70.46 82.64 70.46"/>
      <polygon class="cls-4" points="82.64 175.33 93.43 185.45 93.42 185.45 82.63 175.33 82.64 175.33 82.64 175.33"/>
      <polygon class="cls-4" points="82.63 175.33 93.42 185.45 93.48 186.25 93.64 186.97 93.89 187.62 94.22 188.2 94.62 188.71 95.08 189.13 84.29 179.02 83.83 178.59 83.43 178.09 83.1 177.51 82.85 176.86 82.69 176.13 82.63 175.33 82.63 175.33"/>
      <polygon class="cls-4" points="104.26 69.6 115.05 79.72 115.19 79.84 115.32 79.99 115.41 80.16 115.47 80.35 115.49 80.55 104.7 70.43 104.68 70.23 104.62 70.05 104.52 69.87 104.4 69.73 104.26 69.6 104.26 69.6"/>
      <polygon class="cls-4" points="104.7 70.43 115.49 80.55 115.49 80.57 104.7 70.46 104.7 70.43 104.7 70.43"/>
      <polygon class="cls-4" points="104.7 70.46 115.49 80.57 115.49 190.97 104.7 180.85 104.7 70.46 104.7 70.46"/>
      <polygon class="cls-4" points="104.7 180.85 115.49 190.97 115.49 190.97 104.7 180.86 104.7 180.85 104.7 180.85"/>
      <polygon class="cls-4" points="104.7 180.86 115.49 190.97 115.48 190.97 104.69 180.86 104.7 180.86 104.7 180.86"/>
      <polygon class="cls-4" points="125.77 192.93 136.56 203.04 125.56 203.04 114.77 192.93 125.77 192.93 125.77 192.93"/>
      <polygon class="cls-4" points="101.7 189.46 112.49 199.57 112.11 199.97 111.69 200.34 111.26 200.7 110.8 201.03 110.31 201.34 109.81 201.62 109.28 201.88 108.72 202.12 108.14 202.33 107.54 202.52 106.91 202.67 106.26 202.8 105.59 202.91 104.89 202.98 104.17 203.02 103.42 203.04 92.63 192.93 93.38 192.91 94.1 192.87 94.8 192.79 95.47 192.69 96.12 192.56 96.75 192.4 97.35 192.22 97.93 192.01 98.49 191.77 99.02 191.51 99.52 191.22 100.01 190.92 100.47 190.58 100.9 190.23 101.32 189.85 101.7 189.46 101.7 189.46"/>
      <polygon class="cls-4" points="92.63 192.93 103.42 203.04 103.42 203.04 92.63 192.93 92.63 192.93 92.63 192.93"/>
      <polygon class="cls-4" points="92.63 192.93 103.42 203.04 103.41 203.04 92.62 192.93 92.63 192.93 92.63 192.93"/>
      <polygon class="cls-4" points="81.63 192.93 92.42 203.04 91.74 203.02 91.08 202.98 90.43 202.91 89.8 202.8 89.18 202.67 88.58 202.51 87.99 202.33 87.43 202.11 86.88 201.88 86.35 201.61 85.84 201.33 85.34 201.02 84.87 200.68 74.08 190.57 74.55 190.91 75.05 191.21 75.56 191.5 76.09 191.77 76.64 192 77.2 192.21 77.79 192.4 78.39 192.56 79.01 192.69 79.64 192.79 80.29 192.87 80.95 192.91 81.63 192.93 81.63 192.93"/>
      <polygon class="cls-4" points="81.64 192.93 92.43 203.04 92.42 203.04 81.63 192.93 81.64 192.93 81.64 192.93"/>
      <polygon class="cls-4" points="92.62 192.93 103.41 203.04 92.43 203.04 81.64 192.93 92.62 192.93 92.62 192.93"/>
      <polygon class="cls-4" points="60.35 136.68 71.14 146.79 71.14 190.97 60.35 180.85 60.35 136.68 60.35 136.68"/>
      <polygon class="cls-4" points="48.22 69.43 59.01 79.55 59.01 79.55 48.22 69.44 48.22 69.43 48.22 69.43"/>
      <polygon class="cls-4" points="55.49 72.2 66.28 82.32 66.74 82.7 67.18 83.09 56.39 72.98 55.95 72.58 55.49 72.2 55.49 72.2"/>
      <polygon class="cls-4" points="56.39 72.98 67.18 83.09 67.61 83.51 68.01 83.95 68.41 84.4 68.78 84.87 69.13 85.36 69.45 85.87 69.75 86.39 70.03 86.92 70.27 87.46 70.49 88.02 70.68 88.59 70.84 89.17 70.97 89.76 71.06 90.35 71.11 90.96 71.13 91.57 60.34 81.46 60.32 80.85 60.27 80.24 60.18 79.64 60.05 79.06 59.89 78.48 59.7 77.91 59.48 77.35 59.24 76.8 58.96 76.27 58.66 75.75 58.34 75.25 57.99 74.76 57.62 74.29 57.22 73.84 56.82 73.4 56.39 72.98 56.39 72.98"/>
      <polygon class="cls-4" points="60.35 81.46 71.14 91.57 71.14 91.58 60.35 81.47 60.35 81.46 60.35 81.46"/>
      <polygon class="cls-4" points="60.35 81.47 71.14 91.58 71.14 135.52 60.35 125.41 60.35 81.47 60.35 81.47"/>
      <polygon class="cls-4" points="60.35 125.41 71.14 135.52 71.14 135.52 60.35 125.41 60.35 125.41 60.35 125.41"/>
      <polygon class="cls-4" points="60.35 125.41 71.14 135.52 71.13 135.52 60.34 125.41 60.35 125.41 60.35 125.41"/>
      <polygon class="cls-4" points="60.34 125.41 71.13 135.52 71.13 135.85 71.11 136.16 71.08 136.48 71.05 136.79 71 137.1 70.94 137.41 70.87 137.71 70.79 138 70.71 138.29 70.61 138.57 70.5 138.84 70.38 139.11 70.26 139.37 70.13 139.62 69.99 139.86 69.83 140.1 59.04 129.98 59.2 129.75 59.34 129.51 59.47 129.26 59.6 129 59.71 128.73 59.82 128.45 59.92 128.17 60 127.88 60.08 127.59 60.15 127.29 60.21 126.99 60.26 126.68 60.29 126.37 60.32 126.05 60.34 125.73 60.34 125.41 60.34 125.41"/>
      <polygon class="cls-4" points="59.04 129.98 69.83 140.1 69.72 140.26 69.6 140.42 69.47 140.58 69.34 140.73 69.21 140.87 69.07 141.01 68.93 141.14 68.78 141.27 57.99 131.16 58.14 131.03 58.28 130.9 58.42 130.76 58.55 130.62 58.68 130.47 58.81 130.31 58.93 130.15 59.04 129.98 59.04 129.98"/>
      <polygon class="cls-4" points="57.99 131.16 68.78 141.27 68.92 141.38 69.05 141.51 69.18 141.63 69.31 141.76 69.44 141.9 69.56 142.04 69.67 142.19 69.78 142.34 58.99 132.23 58.88 132.08 58.77 131.93 58.65 131.79 58.52 131.65 58.39 131.52 58.26 131.39 58.13 131.27 57.99 131.16 57.99 131.16"/>
      <polygon class="cls-4" points="58.99 132.23 69.78 142.34 69.94 142.57 70.08 142.8 70.22 143.04 70.35 143.29 70.47 143.55 70.58 143.82 70.68 144.09 70.77 144.37 70.86 144.65 70.93 144.95 70.99 145.24 71.04 145.54 71.08 145.85 71.11 146.15 71.13 146.47 71.13 146.78 60.34 136.67 60.34 136.35 60.32 136.04 60.29 135.73 60.25 135.43 60.2 135.13 60.14 134.83 60.07 134.54 59.98 134.26 59.89 133.98 59.79 133.71 59.68 133.44 59.56 133.18 59.43 132.93 59.29 132.69 59.15 132.45 58.99 132.23 58.99 132.23"/>
      <polygon class="cls-4" points="60.35 136.67 71.14 146.78 71.14 146.79 60.35 136.68 60.35 136.67 60.35 136.67"/>
      <polygon class="cls-4" points="69.42 180.72 80.21 190.83 80.21 190.83 69.42 180.72 69.42 180.72 69.42 180.72"/>
      <polygon class="cls-4" points="60.35 180.85 71.14 190.97 71.14 190.97 60.35 180.85 60.35 180.85 60.35 180.85"/>
      <polygon class="cls-4" points="60.35 180.85 71.14 190.97 71.13 190.97 60.34 180.85 60.35 180.85 60.35 180.85"/>
      <polygon class="cls-4" points="60.34 180.85 71.13 190.97 71.12 191.6 71.08 192.23 71.01 192.85 70.91 193.45 70.79 194.04 70.64 194.62 70.47 195.19 70.27 195.74 70.05 196.28 69.8 196.8 69.53 197.3 69.23 197.79 68.91 198.26 68.57 198.72 68.21 199.15 67.82 199.57 57.03 189.45 57.42 189.04 57.78 188.6 58.12 188.15 58.44 187.68 58.74 187.19 59.01 186.69 59.26 186.16 59.48 185.63 59.68 185.08 59.85 184.51 60 183.93 60.12 183.34 60.22 182.73 60.29 182.12 60.33 181.49 60.34 180.85 60.34 180.85"/>
      <polygon class="cls-4" points="57.03 189.45 67.82 199.57 67.42 199.96 66.99 200.34 66.54 200.69 66.07 201.02 65.58 201.33 65.07 201.62 64.55 201.88 64 202.12 63.44 202.33 62.86 202.51 62.26 202.67 61.64 202.8 61.01 202.91 60.36 202.98 59.7 203.02 59.02 203.04 48.23 192.93 48.91 192.91 49.57 192.87 50.22 192.79 50.85 192.69 51.47 192.56 52.06 192.4 52.65 192.21 53.21 192 53.76 191.77 54.28 191.5 54.79 191.22 55.28 190.91 55.75 190.58 56.2 190.23 56.63 189.85 57.03 189.45 57.03 189.45"/>
      <polygon class="cls-4" points="48.23 192.93 59.02 203.04 59.02 203.04 48.23 192.93 48.23 192.93 48.23 192.93"/>
      <polygon class="cls-4" points="25.12 191.93 35.91 202.04 35.91 202.04 25.12 191.93 25.12 191.93 25.12 191.93"/>
      <polygon class="cls-4" points="48.22 192.93 59.01 203.04 36.91 203.04 26.12 192.93 48.22 192.93 48.22 192.93"/>
      <polygon class="cls-4" points="26.12 192.93 36.91 203.04 36.71 203.02 36.52 202.96 36.35 202.87 25.56 192.76 25.73 192.85 25.92 192.91 26.12 192.93 26.12 192.93"/>
      <polygon class="cls-4" points="48.23 192.93 59.02 203.04 59.01 203.04 48.22 192.93 48.23 192.93 48.23 192.93"/>
      <polygon class="cls-4" points="38.24 82.46 49.03 92.58 49.03 134.76 38.24 124.64 38.24 82.46 38.24 82.46"/>
      <polygon class="cls-4" points="42.73 82.46 53.52 92.58 49.03 92.58 38.24 82.46 42.73 82.46 42.73 82.46"/>
      <polygon class="cls-4" points="45.57 83.5 56.36 93.62 55.86 93.26 55.32 92.98 54.75 92.76 54.15 92.63 53.52 92.58 42.73 82.47 43.36 82.51 43.96 82.65 44.53 82.86 45.07 83.15 45.57 83.5 45.57 83.5"/>
      <polygon class="cls-4" points="47.27 86.74 58.06 96.85 58.06 96.85 47.27 86.74 47.27 86.74 47.27 86.74"/>
      <polygon class="cls-4" points="47.27 120.13 58.06 130.24 58.06 130.24 47.27 120.13 47.27 120.13 47.27 120.13"/>
      <polygon class="cls-4" points="38.24 137.67 49.03 147.78 49.03 189.97 38.24 179.85 38.24 137.67 38.24 137.67"/>
      <polygon class="cls-4" points="47.23 175.52 58.02 185.64 58.01 185.64 47.22 175.52 47.23 175.52 47.23 175.52"/>
      <polygon class="cls-4" points="44.96 138.62 55.75 148.73 55.38 148.46 55 148.23 54.62 148.05 54.24 147.91 53.88 147.82 53.53 147.78 42.74 137.67 43.09 137.7 43.45 137.79 43.83 137.93 44.21 138.12 44.59 138.35 44.96 138.62 44.96 138.62"/>
      <polygon class="cls-4" points="42.73 137.67 53.52 147.78 49.03 147.78 38.24 137.67 42.73 137.67 42.73 137.67"/>
      <polygon class="cls-4" points="42.74 137.68 53.53 147.79 53.52 147.79 42.73 137.68 42.74 137.68 42.74 137.68"/>
      <polygon class="cls-4" points="42.74 137.67 53.53 147.78 53.53 147.79 42.74 137.68 42.74 137.67 42.74 137.67"/>
      <polygon class="cls-4" points="42.73 179.85 53.53 189.96 53.53 189.97 42.73 179.85 42.73 179.85 42.73 179.85"/>
      <polygon class="cls-4" points="220.17 97.78 230.97 107.9 228.26 135.39 217.47 125.28 220.17 97.78 220.17 97.78"/>
      <polygon class="cls-4" points="228.16 69.46 238.95 79.57 239.08 79.7 239.17 79.85 239.24 80.02 239.28 80.2 228.49 70.08 228.45 69.9 228.38 69.74 228.29 69.59 228.16 69.46 228.16 69.46"/>
      <polygon class="cls-4" points="228.49 70.08 239.28 80.2 254.06 201.92 243.27 191.81 228.49 70.08 228.49 70.08"/>
      <polygon class="cls-4" points="243.27 191.81 254.06 201.92 254.07 202.13 254.03 202.32 253.96 202.5 253.86 202.66 253.72 202.8 253.57 202.91 253.39 202.99 253.19 203.04 242.4 192.92 242.6 192.88 242.78 192.8 242.93 192.69 243.07 192.55 243.17 192.39 243.24 192.21 243.28 192.02 243.27 191.81 243.27 191.81"/>
      <polygon class="cls-4" points="242.4 192.92 253.19 203.04 253.17 203.04 253.16 203.04 253.15 203.04 253.13 203.04 253.12 203.04 253.1 203.04 253.09 203.04 253.07 203.04 242.28 192.93 242.3 192.93 242.31 192.93 242.33 192.93 242.34 192.93 242.36 192.93 242.37 192.93 242.38 192.92 242.4 192.92 242.4 192.92"/>
      <polygon class="cls-4" points="242.28 192.93 253.07 203.04 253.06 203.04 242.27 192.93 242.28 192.93 242.28 192.93"/>
      <polygon class="cls-4" points="242.27 192.93 253.06 203.04 241.99 203.04 231.2 192.93 242.27 192.93 242.27 192.93"/>
      <polygon class="cls-4" points="231.2 192.93 241.99 203.04 241.81 203.03 241.63 202.98 241.47 202.89 241.32 202.78 230.53 192.67 230.68 192.78 230.84 192.86 231.01 192.91 231.2 192.93 231.2 192.93"/>
      <polygon class="cls-4" points="223.52 137.81 234.31 147.92 227.02 147.88 216.23 137.77 223.52 137.81 223.52 137.81"/>
      <polygon class="cls-4" points="216.23 137.77 227.02 147.88 220.79 202.16 210 192.04 216.23 137.77 216.23 137.77"/>
      <polygon class="cls-4" points="210 192.04 220.79 202.16 220.75 202.34 220.68 202.51 220.58 202.66 220.46 202.79 220.32 202.9 220.16 202.98 219.98 203.03 219.8 203.04 209.01 192.93 209.19 192.91 209.37 192.86 209.53 192.78 209.67 192.68 209.79 192.55 209.89 192.4 209.96 192.23 210 192.04 210 192.04"/>
      <polygon class="cls-4" points="209.01 192.93 219.8 203.04 209.01 192.93 209.01 192.93 209.01 192.93"/>
      <polygon class="cls-4" points="209.01 192.93 219.8 203.04 208.72 203.04 197.93 192.93 209.01 192.93 209.01 192.93"/>
      <polygon class="cls-4" points="197.93 192.93 208.72 203.04 208.52 203.02 208.33 202.96 208.16 202.87 197.37 192.76 197.54 192.85 197.73 192.91 197.93 192.93 197.93 192.93"/>
      <path class="cls-1" d="M38.24,179.99h4.49s0,0,0,0h0c1.07,0,2.19-.64,3.05-1.52.86-.88,1.44-1.95,1.44-2.8h0v-33.48h0s0,0,0,0c0-.82-.65-1.9-1.56-2.8-.91-.9-2.02-1.57-2.93-1.58h0s0,0,0,0h0s-4.49,0-4.49,0v42.18h0ZM42.73,181.99h-5.4s-.06,0-.09,0c-.55,0-1-.45-1-1v-44.18h0c0-.55.45-1,1-1h5.49s0,0,0,0h0c1.48,0,3.1.92,4.34,2.16,1.24,1.24,2.14,2.85,2.14,4.22h0v33.47h0s0,0,0,0c0,1.39-.81,2.98-2.01,4.2-1.2,1.22-2.83,2.12-4.47,2.12h0s0,0,0,0h0ZM38.24,124.78h4.63s.01,0,.01,0c.36,0,.72-.05,1.05-.13.33-.08.64-.18.93-.32,1.45-.69,2.38-2.14,2.41-4.06h0v-33.33s0-.06,0-.06h0c-.01-.31-.07-.62-.16-.93-.09-.3-.21-.6-.36-.88l-.02-.05c-.78-1.41-2.31-2.42-3.99-2.42h0s-4.49,0-4.49,0v42.18h0ZM42.73,126.78h-5.49c-.55,0-1-.45-1-1v-44.18c0-.55.45-1,1-1h5.49c2.43,0,4.62,1.44,5.74,3.45l.04.06c.22.4.4.84.53,1.29.13.44.2.91.23,1.39h0v.02s0,.05,0,.05c0,.04,0,.08,0,.13v33.28h0c-.04,2.76-1.41,4.86-3.55,5.87-.42.2-.87.35-1.34.46-.46.1-.94.17-1.45.18h-.01s-.01,0-.01,0h-.14s-.02,0-.02,0h-.01ZM69.42,180.85v-110.28c0-.55.45-1,1-1h11.22c.55,0,1,.45,1,1v104.9h0c0,2.22,1.2,3.68,2.72,4.32.6.25,1.24.38,1.87.38.64,0,1.27-.11,1.85-.36,1.43-.61,2.54-2.03,2.54-4.34v-104.9c0-.55.45-1,1-1h11.07c.55,0,1,.45,1,1v110.42h0s0,0,0,0c0,3.43-.98,6.43-2.99,8.6-2.01,2.17-5.02,3.47-9.08,3.47h0s0,0,0,0h-10.99c-3.66,0-6.71-1.31-8.85-3.49-2.14-2.18-3.36-5.23-3.36-8.72h0ZM71.42,71.57v109.28h0s0,0,0,0c0,2.95,1.01,5.51,2.79,7.32,1.78,1.81,4.33,2.89,7.43,2.89h0s0,0,0,0h10.99c3.45,0,5.97-1.06,7.61-2.83,1.65-1.78,2.46-4.31,2.46-7.24h0v-109.42h-9.07v103.9c0,3.24-1.64,5.28-3.77,6.18-.83.35-1.73.52-2.63.52-.9,0-1.8-.19-2.63-.53-2.21-.93-3.95-3.01-3.95-6.16h0v-103.9h-9.21ZM113.77,192.07v-121.5c0-.55.45-1,1-1h22.2c3.03,0,6.05,1.61,8.31,3.91,2.25,2.29,3.76,5.31,3.77,8.12h0s0,0,0,0h0v44.18h0s0,0,0,0c0,1.89-.72,3.52-1.88,4.67-.32.32-.68.61-1.07.86.38.24.73.53,1.05.85,1.15,1.16,1.89,2.78,1.89,4.65h0s0,0,0,0v55.26c0,.55-.45,1-1,1h-.02s-11.05,0-11.05,0c-.55,0-1-.45-1-1,0-.03,0-.05,0-.08v-49.95h0s0,0,0,0c0-1.25-.54-2.3-1.37-3.04-.85-.76-2.01-1.19-3.21-1.19h0s0,0,0,0h-4.58v54.25c0,.55-.45,1-1,1h-.02s-11,0-11,0c-.55,0-1-.45-1-1h0ZM115.77,71.57v119.49h9.03v-54.25c0-.55.45-1,1-1h5.59c1.7,0,3.33.62,4.54,1.7,1.23,1.09,2.03,2.66,2.03,4.54h0s0,0,0,0h0v49.02h9.08v-54.25h0s0,0,0,0c0-1.31-.51-2.44-1.31-3.24-.79-.8-1.88-1.27-3.04-1.27h0s0,0,0,0h0v-2h0c1.18,0,2.26-.46,3.05-1.25.8-.8,1.3-1.93,1.3-3.26h0s0,0,0,0v-44.18h0s0,0,0,0c0-2.28-1.28-4.78-3.19-6.72-1.91-1.94-4.42-3.31-6.88-3.31h0s0,0,0,0h-21.2ZM126.8,124.78h4.59c.19,0,.34,0,.78,0,2.52.02,3.8.04,3.8-4.85v-33.19h0s0,0,0,0c0-1.26-.58-2.28-1.43-2.99-.88-.74-2.04-1.15-3.15-1.15h0s0,0,0,0h-4.59v42.17h0ZM131.38,126.78h-5.59c-.55,0-1-.45-1-1v-44.1s0-.05,0-.08c0-.55.45-1,1-1h5.59s0,0,0,0h0c1.56,0,3.19.58,4.43,1.61,1.27,1.06,2.14,2.61,2.14,4.53h0v33.19c0,6.91-1.96,6.89-5.82,6.85h-.77ZM193.39,136.81v44.18h0s0,0,0,0c0,2.4-.49,4.41-1.33,6.06-.34.68-.75,1.3-1.22,1.86-2.34,2.86-5.94,4.15-9.52,4.15h-11.12s0,0,0,0h0c-2.86,0-5.88-1.07-8.17-3.11-2.31-2.05-3.9-5.07-3.9-8.96h0s0,0,0,0v-22.07c0-.55.45-1,1-1h0s11.07,0,11.07,0c.55,0,1,.45,1,1v16.55h0c0,2.24,1.19,3.71,2.71,4.37.61.26,1.26.4,1.91.41.65,0,1.3-.11,1.89-.36,1.46-.62,2.59-2.06,2.63-4.41h0v-33.43s0-4.23-4.35-4.23h-5.78c-2.99,0-6.02-1.5-8.28-3.74-2.26-2.24-3.79-5.25-3.79-8.29h0s0,0,0,0v-44.18h0c0-12.03,12.03-12.03,12.06-12.03h.01s11.12,0,11.12,0h0c3.14,0,6.16,1.46,8.39,3.69,2.23,2.23,3.68,5.24,3.68,8.34h0s0,0,0,0v22.11c0,.55-.45,1-1,1h-.02s-11.05,0-11.05,0c-.55,0-1-.45-1-1,0-.03,0-.05,0-.08v-16.89c0-2-1.15-3.27-2.63-3.83-.61-.23-1.26-.34-1.92-.34-1.17,0-2.33.36-3.2,1.07-.82.68-1.37,1.71-1.37,3.1v33.19s0,.07,0,.11c0,.07,0,.16,0,.28h0c0,1.3.32,2.39,1.01,3.15.69.76,1.8,1.23,3.38,1.3.08,0,.21,0,.39,0h5.35c6,0,9.04,2.98,10.56,5.99,1.5,2.95,1.51,5.94,1.51,6.04h0ZM191.39,180.99v-44.18c0-.09-.01-2.61-1.29-5.13-1.25-2.46-3.76-4.9-8.78-4.9h-5.35c-.11,0-.27,0-.47-.01-2.17-.09-3.74-.8-4.78-1.95-1.04-1.15-1.53-2.71-1.53-4.5h0c0-.07,0-.18,0-.33v-.05s0-33.19,0-33.19c0-2.05.84-3.6,2.11-4.64,1.23-1.01,2.85-1.52,4.46-1.52.9,0,1.8.16,2.63.47,2.2.83,3.92,2.73,3.92,5.7v15.97h9.08v-21.11h0s0,0,0,0c0-2.55-1.22-5.05-3.1-6.92-1.88-1.88-4.39-3.11-6.98-3.11h0s0,0,0,0h-11.12c-.38,0-10.07.18-10.07,10.03h0s0,44.17,0,44.17h0s0,0,0,0c0,2.48,1.29,4.98,3.2,6.87,1.91,1.89,4.43,3.16,6.87,3.16h0s0,0,0,0h5.77c6.35,0,6.35,6.22,6.35,6.24v33.43h0c-.04,3.29-1.71,5.34-3.85,6.25-.85.36-1.77.53-2.68.52-.92-.01-1.84-.2-2.68-.56-2.19-.95-3.91-3.05-3.91-6.2h0v-15.55h-9.08v21.07h0s0,0,0,0c0,3.25,1.32,5.77,3.23,7.47,1.93,1.71,4.45,2.61,6.84,2.61h0s0,0,0,0h11.12c3.03,0,6.06-1.05,7.97-3.41.37-.45.7-.95.98-1.51.71-1.39,1.12-3.1,1.12-5.15h0ZM196.95,191.86l15.57-121.6c.06-.5.49-.87.99-.87h0s13.99-.05,13.99-.05c.51,0,.93.39.99.88h0s14.78,121.73,14.78,121.73c.06.55-.33,1.05-.88,1.11-.04,0-.08,0-.12,0h0s-11.07,0-11.07,0c-.52,0-.95-.39-.99-.9l-6.69-54.22-7.28-.04-6.23,54.27c-.06.51-.49.89-.99.89h-11.07c-.55,0-1-.45-1-1,0-.07,0-.14.02-.21h0ZM214.39,71.38l-15.33,119.69h9.05l6.23-54.28h0c.06-.5.48-.88.99-.88l8.99.05c.52-.03.99.35,1.06.88l6.69,54.23h9.06l-14.54-119.73-12.22.04h0ZM217.47,125.42l4.95.13-2.25-27.63-2.7,27.5h0ZM223.48,127.57l-7.09-.18s-.08,0-.12,0c-.55-.06-.95-.54-.9-1.09l3.89-39.6c.03-.5.41-.91.92-.95.55-.04,1.03.37,1.08.92l3.24,39.83h0s0,.07,0,.1c-.01.55-.47.99-1.02.97h0ZM25.12,192.07v-121.5c0-.55.45-1,1-1,.03,0,.05,0,.08,0h22.03s0,0,0,0h0c2.81,0,5.85,1.37,8.16,3.55,2.32,2.18,3.95,5.19,3.96,8.48h0s0,0,0,0v43.94h0s0,0,0,0c0,1.72-.47,3.35-1.3,4.57-.31.45-.66.85-1.05,1.17.37.3.71.66,1,1.07.84,1.17,1.35,2.76,1.35,4.44h0s0,0,0,0v44.18h0s0,0,0,0c0,3.42-1.19,6.43-3.31,8.6-2.12,2.16-5.14,3.47-8.8,3.47h0s0,0,0,0h0s-22.1,0-22.1,0c-.55,0-1-.45-1-1h0ZM27.12,71.57v119.5h21.1s0,0,0,0h0c3.09,0,5.62-1.08,7.37-2.87,1.75-1.8,2.75-4.32,2.75-7.21h0v-44.18h0s0,0,0,0c0-1.26-.37-2.42-.98-3.27-.54-.76-1.28-1.24-2.11-1.24h0s0,0,0,0h0v-2h0c.85,0,1.59-.5,2.13-1.29.61-.9.96-2.13.96-3.45h0v-43.95h0s0,0,0,0c0-2.69-1.37-5.19-3.33-7.02-1.96-1.84-4.49-3-6.79-3h0s0,0,0,0h0s-21.1,0-21.1,0h0Z"/>
      <path class="cls-2" d="M37.24,180.99h5.49c2.72,0,5.49-3.08,5.49-5.33v-33.47c0-2.2-3.1-5.37-5.49-5.37h-5.49s0,44.18,0,44.18h0ZM37.24,125.78h5.49c3.19,0,5.49-2.2,5.54-5.51v-33.28c-.05-2.85-2.58-5.38-5.54-5.38h-5.49s0,44.17,0,44.17h0ZM70.42,180.85v-110.28h11.22v104.9c0,7.34,10.98,7.85,10.98,0v-104.9h11.08v110.42c0,6.36-3.57,11.08-11.08,11.08h-10.98c-6.76,0-11.22-4.77-11.22-11.22h0ZM114.77,192.07v-121.5h22.2c5.49,0,11.08,5.94,11.08,11.03v44.17c0,3.23-2.44,5.52-5.35,5.52,2.86,0,5.35,2.34,5.35,5.52v55.25h-11.08v-50.02c0-3.13-2.68-5.24-5.58-5.24h-5.59s0,55.25,0,55.25h-11.03ZM125.8,125.78h5.59c3.71,0,5.58.52,5.58-5.84v-33.19c0-3.18-2.91-5.14-5.58-5.14h-5.59s0,44.17,0,44.17h0ZM192.39,136.81v44.18c0,7.81-5.54,11.08-11.08,11.08h-11.12c-5.26,0-11.08-3.93-11.08-11.08v-22.07h11.08v16.55c0,7.43,11.03,7.95,11.12,0v-33.42s0-5.24-5.35-5.24h-5.77c-5.44,0-11.08-5.52-11.08-11.03v-44.18c0-11.03,11.08-11.03,11.08-11.03h11.12c5.73,0,11.08,5.38,11.08,11.03v22.11h-11.08v-16.97c0-6.92-11.12-6.87-11.12,0v33.19c-.14,3.41,1.55,5.84,5.77,5.84h5.35c11.03,0,11.08,10.84,11.08,11.03h0ZM197.93,192.07l15.58-121.68,13.99-.05,14.78,121.73h-11.08l-6.81-55.11-9.06-.05-6.34,55.16h-11.08ZM216.37,126.39l7.13.19-3.24-39.83-3.9,39.64h0ZM26.12,192.07v-121.5h22.1c5.12,0,11.12,5.05,11.12,11.03v43.94c0,3.04-1.64,5.75-4.08,5.75,2.35,0,4.08,2.57,4.08,5.52v44.18c0,6.31-4.36,11.08-11.12,11.08h-22.1Z"/>
    </g>
  </g>
</svg>